# xmcd
#
# Track frame offsets:
#	150
#	13596
#	33598
#	49072
#	67902
#	87103
#	99448
#	109689
#	127071
#	141973
#	153029
#
# Disc length: 2203 seconds
#
# Revision: 14
# Processed by: cddbd v1.5.2PL0 Copyright (c) Steve Scherf et al.
# Submitted via: Jack! The Knife 20 Magnifico
#
DISCID=8708990b
DTITLE=Venom - Calm Before The Storm
DYEAR=1987
DGENRE=Black Metal
TTITLE0=Black Xmas
TTITLE1=The Chanting Of The Priests
TTITLE2=Metal Punk
TTITLE3=Under A Spell
TTITLE4=Calm Before The Storm
TTITLE5=Fire
TTITLE6=Krackin' Up
TTITLE7=Beauty And The Beast
TTITLE8=Deadline
TTITLE9=Gypsy
TTITLE10=Muscle
EXTD=Nick Tauber
EXTT0=Cronos, Hickey, Clare, Abaddon
EXTT1=Cronos, Hickey, Clare, Abaddon
EXTT2=Cronos, Hickey, Clare, Abaddon
EXTT3=Cronos, Hickey, Clare, Abaddon
EXTT4=Cronos, Hickey, Clare, Abaddon
EXTT5=Cronos, Hickey, Clare, Abaddon
EXTT6=Cronos, Hickey, Clare, Abaddon
EXTT7=Cronos, Hickey, Clare, Abaddon
EXTT8=Cronos, Hickey, Clare, Abaddon
EXTT9=Cronos, Hickey, Clare, Abaddon
EXTT10=Cronos, Hickey, Clare, Abaddon
PLAYORDER=
